<svg width="150" height="150" xmlns="http://www.w3.org/2000/svg"><title>Slice 1</title><g fill="#B366A7"><path d="M110.967 51.014s1.69-2.016.496-4.406c-1.285-2.568-3.428-3.28-3.428-3.28s.416-2.122-.871-3.265c-1.734-1.539-3.475-1.285-3.475-1.285s-1.013-2.731-3.543-3.742c-2.525-1.011-4.342.278-4.342.278s-.727-2.438-3.239-3.311c-2.661-.923-4.855.203-4.855.203s-1.355-1.897-4.993-1.897c-3.64 0-5.624 1.796-5.624 1.796s-2.93-1.715-5.862-.705c-2.932 1.011-3.946 3.232-3.946 3.232s-2.525-1.417-6.32.297c-3.349 1.514-3.894 3.849-3.894 3.849s-2.223-.032-3.485 1.027c-2.412 2.029-1.268 3.481-1.268 3.481s-3.091 1.21-4.85 4.694c-1.966 3.888-1.179 7.228-.102 8.595 1.516 1.921 3.337 1.617 3.337 1.617s-2.124 4.449 4.852 5.967c6.977 1.516 10.416 1.313 10.416 1.313s-2.529 3.337.201 6.069c2.731 2.729 6.977 3.032 6.977 3.032s3.136.5 5.158 2.322c2.023 1.821 4.955 12.634 4.955 12.634h3.233l1.517-7.173s3.066 4.45 7.685 3.642c5.393-.944 6.066-8.29 6.066-8.29s5.141 2.328 7.687-1.617c1.87-2.9.81-5.561.81-5.561s5.368-1.622 4.751-10.011c-.506-6.875-4.044-9.504-4.044-9.504zm-12.631 6.496c-.046.367-.386.685-.755.706l-1.63.1c-.369.021-.765.327-.88.678l-.594 1.461c-.165.33-.098.824.151 1.098l1.096 1.211c.246.273.259.731.021 1.015l-2.317 2.343c-.281.238-.737.231-1.013-.014l-1.223-1.084c-.276-.245-.772-.307-1.101-.138l-1.454.609c-.352.118-.653.516-.67.886l-.082 1.629c-.015.371-.331.715-.698.765 0 0-.859.121-1.649.125-.791.004-1.652-.108-1.652-.108-.364-.049-.683-.388-.703-.757l-.098-1.628c-.026-.37-.329-.767-.681-.882l-1.46-.595c-.331-.164-.825-.098-1.098.152l-1.21 1.095c-.273.249-.731.258-1.015.022l-2.343-2.317c-.236-.282-.231-.739.013-1.014l1.085-1.222c.244-.275.305-.771.138-1.1l-.609-1.454c-.119-.35-.517-.651-.888-.67l-1.631-.08c-.369-.017-.712-.333-.763-.699 0 0-.121-.858-.125-1.651-.004-.789.108-1.649.108-1.649.049-.366.388-.685.758-.706l1.63-.098c.366-.023.763-.329.88-.678l.596-1.462c.163-.329.095-.823-.153-1.099l-1.094-1.209c-.248-.273-.259-.731-.026-1.017l2.319-2.341c.282-.237.74-.233 1.018.011l1.219 1.084c.275.245.769.31 1.1.14l1.454-.611c.35-.118.653-.517.67-.887l.08-1.629c.019-.369.333-.714.698-.763 0 0 .858-.123 1.649-.126.791-.004 1.653.107 1.653.107.365.047.682.388.706.759l.095 1.627c.023.371.329.767.68.882l1.461.594c.329.165.824.098 1.098-.149l1.211-1.096c.271-.248.729-.259 1.013-.023l2.343 2.316c.24.282.233.739-.013 1.016l-1.083 1.22c-.244.276-.307.773-.14 1.102l.611 1.454c.116.35.515.652.886.67l1.631.081c.371.019.712.333.765.699 0 0 .121.859.123 1.65.005.791-.108 1.65-.108 1.65zm0 0" id="Shape"/><path d="M85.439 49.88c-3.339.016-6.029 2.739-6.014 6.078.019 3.337 2.739 6.031 6.076 6.013 3.339-.015 6.033-2.735 6.017-6.074-.017-3.34-2.737-6.033-6.079-6.017zm0 0" id="Shape"/><path d="M75 0c-41.421 0-75 33.579-75 75s33.579 75 75 75 75-33.579 75-75-33.579-75-75-75zm47.975 66.066c-1.558 11.802-8.257 19.666-13.301 25.219-4.024 4.43-4.582 12.73-4.582 18.341 0 8.178 2.887 14.587 5.084 18.582h-51.371l-.124-.526c-.996-4.432-.939-8.338-1.481-10.663-.861-3.692-4.009-2.686-10.702-1.611-7.023 1.128-11.452-.962-11.846-5.638-.301-3.583 1.99-7.263 1.878-7.981-.229-1.424-2.807-1.792-3.248-3.611-.426-1.752 3.854-2.561 3.854-2.561s-1.921-.061-3.174-.549c-1.009-.392-1.501-.542-1.444-1.889.07-1.579 1.351-3.794 1.019-4.568-.332-.776-1.884-1.329-3.877-1.993-1.993-.664-2.987-1.28-2.987-2.94 0-1.661 4.246-7.817 5.906-10.586 1.662-2.771 3.837-5.304 4.058-6.19.222-.886-1.717-1.565-1.717-3.288 0-1.803 1.166-7.235 1.166-7.235s2.546-14.62 13.844-24.921c12.954-11.808 37.514-11.819 51.428-5.575 17.596 7.897 23.556 25.495 21.616 40.183zm0 0"/></g></svg>